<?xml version="1.0" encoding="UTF-8"?>
<svg xmlns="http://www.w3.org/2000/svg" viewBox="0 0 69.82 69.82">
    <defs>
        <style>.cls-1{fill:#f97e53;}.cls-2{fill:#fdc611;}.cls-3{fill:#62ddd7;}</style>
    </defs>
    <path class="cls-1" d="M8.67,13.28c-4.45,4.23-6.45,10.27-5.52,16.32,.89,5.73,3.94,11.06,7.65,15.43,3.95,4.65,9,8.11,14.58,10.52s11.29,3.87,17.21,3.83c5.55-.04,11.32-1.76,16.28-4.17s9.13-6.28,10.23-11.81c2.56-12.81-9.11-22.9-19.23-28.17-11.96-6.22-29.75-12.38-41.21-1.95-1.46,1.33,.71,3.5,2.17,2.17,9.11-8.29,23.3-4.03,33.19,.37,5.38,2.39,10.66,5.32,14.95,9.4,3.82,3.64,7.04,8.55,7.37,13.95,.3,5.04-2.17,9.24-6.36,11.91s-9.22,4.31-14,5c-5.17,.75-10.56-.22-15.48-1.84s-10.06-4.22-14.07-7.81c-4.37-3.92-7.99-9.01-9.66-14.68s-.47-12,4.06-16.31c1.43-1.36-.74-3.53-2.17-2.17Z"/>
    <path class="cls-2" d="M56.78,27.96c1.59,6.54,1.78,13.44,.69,20.08-.94,5.72-2.84,11.57-7.96,14.86-8.61,5.54-19.97,2.5-27.37-3.68-4.05-3.39-7.28-7.79-9.02-12.8-1.83-5.26-1.81-10.95-.66-16.36s3.35-10.59,6.38-15.21c2.85-4.35,6.78-8.62,11.89-10.22,6.22-1.94,12.22,1.16,16.47,5.63,4.65,4.9,7.92,11.17,9.57,17.7,.49,1.91,3.45,1.1,2.96-.82-1.67-6.55-4.87-12.69-9.26-17.83C46.5,4.67,40.88,.89,34.55,.95c-12.36,.12-20.46,13.5-23.84,23.87-1.91,5.87-2.69,12.21-1.61,18.33s4.1,11.43,8.23,15.76c7.48,7.85,19.66,12.61,30.19,8.43,3.06-1.21,5.83-3.1,7.9-5.69,2.28-2.84,3.61-6.29,4.42-9.82,1.87-8.06,1.85-16.65-.11-24.68-.47-1.92-3.42-1.11-2.96,.82Z"/>
    <path class="cls-3" d="M18.61,19.56c5.44-4.03,11.59-7.09,18.06-9.06,5.5-1.67,11.83-3.14,17.45-1.2,10.33,3.55,11.42,16.31,9.16,25.39-1.31,5.29-3.77,10.4-7.43,14.48-3.86,4.3-8.97,7.11-14.47,8.73s-11.47,2.17-17.26,1.72c-5.3-.41-10.91-1.63-15.27-4.81-13.32-9.7,.48-28.25,9.75-35.25,1.56-1.18,.03-3.84-1.55-2.65-5.79,4.37-10.71,10.03-13.91,16.57-3,6.14-4.24,13.87-.05,19.8,3.47,4.91,9.32,7.43,15.05,8.59,6.12,1.24,12.46,1.26,18.6,.24s12.48-3.35,17.54-7.3,8.34-9.08,10.53-14.8c3.88-10.09,4.27-24.3-5.38-31.36-5.12-3.74-11.5-3.71-17.47-2.61-7.2,1.33-14.22,4.1-20.49,7.89-1.53,.92-3,1.92-4.44,2.98-1.57,1.16-.04,3.83,1.55,2.65Z"/>
    <path class="cls-2" d="M56.78,27.96c1.32,5.42,1.64,11.02,1.14,16.57-.46,5.06-1.48,10.42-4.45,14.66-1.13,1.62,1.52,3.16,2.65,1.55,3.19-4.56,4.28-10.3,4.82-15.74,.6-5.96,.21-12.02-1.2-17.85-.47-1.92-3.42-1.11-2.96,.82h0Z"/>
    <path class="cls-2" d="M12.89,45.7c-2.22-7.15-1.18-14.84,1.37-21.75,2.4-6.5,6.42-13.37,12.32-17.27,3.27-2.16,7.04-3.17,10.92-2.35,1.93,.4,2.75-2.55,.82-2.96-8.22-1.72-15.34,2.98-20.19,9.27s-8.17,14.19-9.2,22.17c-.59,4.59-.36,9.29,1.01,13.72,.58,1.88,3.54,1.08,2.96-.82h0Z"/>
    <path class="cls-1" d="M62.18,24.07c-4.97-5.11-11.3-8.63-17.79-11.42-.76-.33-1.64-.23-2.1,.55-.38,.65-.21,1.77,.55,2.1,6.26,2.69,12.38,6.02,17.17,10.94,1.38,1.42,3.55-.75,2.17-2.17h0Z"/>
</svg>
