<?xml version="1.0" encoding="UTF-8"?><svg id="Layer_1" xmlns="http://www.w3.org/2000/svg" viewBox="0 0 512 512" width="1024" height="1024"><defs><style>.cls-1{fill:#f97e53;}.cls-2{fill:#fdc611;}.cls-3{fill:#96f;}.cls-4{fill:#62ddd7;}</style></defs><rect class="cls-3" x="50" y="50" width="412" height="412" rx="90" ry="90"/><g><path class="cls-1" d="M146.79,165.8c-9.31,8.71-16.3,19.68-20.36,31.75s-4.72,25.79-2.48,38.66c1.98,11.39,6.19,22.39,11.42,32.66,5.64,11.06,12.81,21.33,20.91,30.72,16.05,18.61,36.46,32.65,58.92,42.44s47.48,16.46,72.44,16.31c6.08-.04,12.12-.58,18.13-1.51,5.36-.82,10.63-2.18,15.86-3.59,11.32-3.05,22.46-6.85,33.05-11.9,9.96-4.74,19.55-10.91,27.21-18.9,8.1-8.45,13.91-18.98,16.34-30.46,5.21-24.6-3.72-49.99-18.56-69.59-15.99-21.12-38.03-36.73-61.37-48.86-12.28-6.38-25.02-11.97-37.96-16.86-12.99-4.9-26.35-8.95-40.02-11.41-26.64-4.8-55.4-4.19-79.31,9.9-5.09,3-9.88,6.62-14.23,10.63-3.02,2.79-3.04,8.31,0,11.1,3.23,2.97,7.88,2.98,11.1,0,1.64-1.51,3.34-2.95,5.1-4.32l-1.59,1.23c5.21-3.99,10.92-7.26,16.96-9.81l-1.87,.79c7.07-2.95,14.49-4.88,22.07-5.92l-2.09,.28c11.4-1.5,22.99-1.15,34.37,.36l-2.09-.28c15.94,2.17,31.48,6.62,46.52,12.24,4.29,1.6,8.53,3.3,12.75,5.08l-1.87-.79c15.77,6.67,31.2,14.31,45.52,23.73,3.99,2.62,7.88,5.39,11.66,8.31l-1.59-1.23c9.18,7.12,17.7,15.14,24.84,24.32l-1.23-1.59c5.42,7.03,10.04,14.66,13.52,22.83l-.79-1.87c2.77,6.59,4.77,13.47,5.72,20.56l-.28-2.09c.72,5.61,.78,11.28,.03,16.9l.28-2.09c-.7,5.02-2.02,9.91-3.97,14.58l.79-1.87c-1.82,4.29-4.18,8.29-7.03,11.98l1.23-1.59c-3.37,4.31-7.31,8.1-11.62,11.46l1.59-1.23c-7.18,5.54-15.23,9.83-23.56,13.37l1.87-.79c-7.04,2.97-14.3,5.41-21.64,7.52s-14.35,3.97-21.72,4.98l2.09-.28c-11.22,1.49-22.61,1.15-33.81-.34l2.09,.28c-16.17-2.2-31.98-6.78-47-13.12l1.87,.79c-13.37-5.68-26.29-12.73-37.81-21.62l1.59,1.23c-9.97-7.75-18.89-16.79-26.62-26.77l1.23,1.59c-7.4-9.6-13.71-20.06-18.42-31.24l.79,1.87c-3.38-8.08-5.95-16.54-7.14-25.23l.28,2.09c-.81-6.21-.85-12.49-.05-18.71l-.28,2.09c.81-6,2.38-11.86,4.71-17.45l-.79,1.87c2.3-5.43,5.27-10.52,8.85-15.2l-1.23,1.59c2.36-3.04,4.95-5.88,7.76-8.51,3.01-2.81,3.05-8.3,0-11.1-3.22-2.96-7.89-3-11.1,0Z"/><path class="cls-2" d="M344.63,227.77c1.7,6.88,3.01,13.84,3.97,20.86l-.28-2.09c2.59,19.37,2.46,39.05-.11,58.42l.28-2.09c-1.79,13.25-4.5,26.55-9.69,38.92l.79-1.87c-1.56,3.67-3.32,7.24-5.38,10.65-1,1.65-2.06,3.26-3.19,4.82-.28,.39-.57,.77-.85,1.15-.8,1.08,1.07-1.35,.23-.3-.59,.73-1.19,1.46-1.8,2.17-2.29,2.65-4.79,5.11-7.47,7.37-.54,.46-1.6,1.02-1.97,1.61-.06,.09,1.45-1.11,.82-.63-.16,.12-.31,.24-.47,.35-.36,.27-.73,.54-1.1,.81-1.42,1.02-2.87,1.99-4.36,2.9-3.29,2.02-6.73,3.77-10.28,5.28l1.87-.79c-7.06,2.96-14.49,4.92-22.07,5.94l2.09-.28c-8.21,1.07-16.48,1-24.68-.08l2.09,.28c-10.12-1.37-19.98-4.18-29.39-8.13l1.87,.79c-5.75-2.44-11.31-5.29-16.65-8.54-2.7-1.65-5.34-3.39-7.92-5.22-1.24-.89-2.45-1.82-3.68-2.72,2.26,1.67-.01-.02-.52-.42-.7-.56-1.39-1.12-2.08-1.7-4.85-4.04-9.41-8.42-13.63-13.11-1.04-1.16-2.06-2.33-3.06-3.52-.5-.6-1-1.2-1.49-1.81-.43-.54-2.39-3.13-.71-.87-1.95-2.62-3.88-5.25-5.67-7.99-4.05-6.2-7.54-12.76-10.43-19.58l.79,1.87c-3.91-9.32-6.6-19.04-7.95-29.06l.28,2.09c-1.58-12.05-1.33-24.27,.27-36.31l-.28,2.09c2.16-15.86,6.62-31.35,12.82-46.09l-.79,1.87c5.02-11.87,11.16-23.28,18.47-33.9,.8-1.17,1.62-2.32,2.45-3.47,.45-.62,.9-1.23,1.36-1.84,.23-.3,.46-.61,.68-.91,1.24-1.64-.82,1.03,.04-.06,2.01-2.55,4.08-5.05,6.25-7.46s4.55-4.85,6.98-7.13c1.1-1.03,2.21-2.03,3.35-3.01,.62-.53,1.24-1.05,1.87-1.57,.31-.26,.63-.51,.94-.77,.45-.36,2.09-1.55,0-.02,5.63-4.13,11.43-7.82,17.88-10.55l-1.87,.79c5.2-2.16,10.62-3.69,16.21-4.45l-2.09,.28c5.21-.67,10.46-.66,15.67,.02l-2.09-.28c5.79,.8,11.42,2.4,16.82,4.65l-1.87-.79c5.77,2.44,11.21,5.58,16.29,9.25,.59,.42,1.16,.86,1.74,1.29,1.25,.92-1.21-.96-.38-.3,.28,.23,.57,.45,.86,.67,1.31,1.05,2.6,2.13,3.86,3.23,2.37,2.09,4.66,4.29,6.85,6.57s4.38,4.77,6.45,7.25c.94,1.13,1.86,2.27,2.77,3.42,.27,.35,.54,.7,.82,1.04-1.38-1.69-.61-.79-.28-.36,.54,.71,1.07,1.42,1.6,2.13,3.87,5.24,7.44,10.7,10.71,16.34,3.74,6.45,7.06,13.13,9.97,19.99l-.79-1.87c3.38,8.04,6.17,16.31,8.28,24.77,1,3.98,5.69,6.77,9.65,5.48s6.55-5.39,5.48-9.65c-6.72-26.89-19.97-52.07-37.81-73.24-16.9-20.04-41.06-36.45-68.22-35.81-25.57,.6-47.8,16.02-63.77,35.01s-28.04,42.01-35.61,65.87c-7.78,24.54-10.76,50.99-5.88,76.41,4.6,23.97,17.14,46.32,33.87,63.93s36.37,29.72,58.57,36.56,46.09,7.26,67.48-1.3c11.64-4.66,22.39-11.48,30.77-20.92,9.43-10.62,15.44-23.58,19.29-37.17s6.02-28.72,6.97-43.24,.36-30.25-1.69-45.26c-.96-7.02-2.27-13.98-3.97-20.86-.99-3.99-5.7-6.76-9.65-5.48s-6.54,5.38-5.48,9.65Z"/><path class="cls-4" d="M189.62,194.09c12.11-9.03,25.15-16.79,38.74-23.37,3.99-1.93,8.02-3.76,12.1-5.48l-1.87,.79c15.11-6.37,30.83-11.39,46.91-14.63,4.45-.9,8.93-1.65,13.43-2.25l-2.09,.28c8.71-1.15,17.42-1.58,26.16-.43l-2.09-.28c6.19,.85,12.26,2.42,18.03,4.83l-1.87-.79c3,1.27,5.91,2.75,8.69,4.45,1.4,.86,2.76,1.77,4.09,2.74,.3,.22,.59,.44,.89,.66,1.29,.95-1.37-1.09-.46-.35,.66,.53,1.32,1.06,1.96,1.62,2.5,2.15,4.84,4.5,6.98,7.02,.49,.57,.97,1.16,1.44,1.75,.11,.14,.27,.41,.4,.51,.03,.02-1.3-1.72-.63-.81,.26,.35,.52,.7,.78,1.05,.97,1.33,1.89,2.7,2.76,4.1,2.1,3.37,3.9,6.92,5.45,10.58l-.79-1.87c3.16,7.57,5.15,15.55,6.25,23.67l-.28-2.09c1.51,11.45,1.28,23.07-.24,34.51l.28-2.09c-1.84,13.62-5.51,26.97-10.83,39.64l.79-1.87c-2.55,6.04-5.47,11.93-8.79,17.58-1.66,2.83-3.41,5.59-5.26,8.3-.89,1.3-1.8,2.58-2.73,3.85-.47,.63-.94,1.26-1.42,1.89s.79-1.01,.67-.87c-.15,.19-.3,.38-.45,.57-.26,.33-.52,.66-.79,.99-4.06,5.07-8.51,9.84-13.34,14.19-1.21,1.1-2.45,2.17-3.71,3.21-.62,.51-1.25,1.02-1.88,1.52-.26,.2-1.35,1.06-.23,.19,1.19-.92-.29,.21-.54,.4-2.63,1.98-5.35,3.85-8.14,5.61-6.49,4.1-13.33,7.59-20.4,10.58l1.87-.79c-14.65,6.15-30.17,10.06-45.9,12.18l2.09-.28c-14.32,1.91-28.84,2.36-43.26,1.3-3.94-.29-7.87-.69-11.79-1.21l2.09,.28c-12.75-1.72-25.39-4.64-37.27-9.64l1.87,.79c-6.53-2.77-12.82-6.16-18.53-10.39-.17-.13-1.02-.61-1.08-.81,0-.03,1.69,1.33,.79,.61-.13-.11-.26-.21-.39-.31-.7-.56-1.38-1.13-2.06-1.72-1.3-1.12-2.55-2.3-3.76-3.52s-2.27-2.39-3.33-3.65c-.25-.29-.49-.59-.73-.89-.14-.17-.27-.34-.41-.51-.57-.7,1.16,1.53,.62,.81-.49-.66-.98-1.32-1.45-1.99-2.21-3.18-4.08-6.58-5.6-10.14l.79,1.87c-2-4.79-3.31-9.81-4-14.95l.28,2.09c-.78-6.14-.67-12.34,.14-18.47l-.28,2.09c1.19-8.7,3.73-17.15,7.14-25.24l-.79,1.87c4.68-10.98,10.86-21.36,17.8-31.05,.8-1.11,1.61-2.22,2.43-3.32,.43-.58,.88-1.15,1.31-1.73-1.6,2.13,.28-.35,.65-.81,1.86-2.34,3.77-4.64,5.74-6.89,3.97-4.54,8.15-8.9,12.53-13.05,2.47-2.34,5-4.61,7.6-6.81,1.3-1.1,2.61-2.18,3.95-3.25,.69-.55,1.39-1.11,2.1-1.65-.08,.06-1.55,1.18-.53,.41,.47-.36,.94-.72,1.42-1.07,1.7-1.27,3.02-2.56,3.61-4.69,.52-1.88,.28-4.38-.79-6.05s-2.69-3.15-4.69-3.61-4.4-.45-6.05,.79c-12.3,9.22-23.54,19.7-33.35,31.54s-17.85,23.75-24.39,37.05c-7.21,14.65-12.2,30.92-11.73,47.39,.38,13.13,4.28,26.29,12.14,36.91,7.44,10.06,17.26,17.93,28.39,23.6s23.53,9.58,35.98,11.94,25.07,3.55,37.69,3.62c13.29,.08,26.59-1.12,39.68-3.44s25.13-5.71,37-10.66c12.67-5.28,24.42-11.9,35.17-20.47,9.94-7.92,18.4-17.54,25.59-27.99s12.87-21.91,17.33-33.8c4.43-11.8,7.27-24.02,8.9-36.51,1.45-11.15,1.66-22.51,.21-33.67-1.55-11.94-4.63-23.46-10.3-34.16s-13.77-19.74-23.68-26.53-21.82-10.61-33.86-12.15c-13.57-1.73-27.41,.29-40.73,2.94-14.34,2.86-28.4,7.14-42,12.53s-27.97,12.32-41,20.3c-5.85,3.59-11.55,7.43-17.05,11.53-1.7,1.27-3.02,2.57-3.61,4.69-.52,1.88-.28,4.38,.79,6.05s2.69,3.15,4.69,3.61,4.39,.44,6.05-.79Z"/><path class="cls-2" d="M344.63,227.77c1.72,6.96,3.04,14.01,4,21.12l-.28-2.09c2.57,19.41,2.41,39.14-.19,58.54l.28-2.09c-1.8,13.19-4.53,26.42-9.71,38.74l.79-1.87c-2.27,5.32-5.01,10.42-8.38,15.13-1.12,1.57-1.28,4.26-.79,6.05s1.91,3.79,3.61,4.69c1.82,.96,4.03,1.44,6.05,.79s3.44-1.86,4.69-3.61c10.31-14.43,15.12-32.25,17.95-49.54,3.1-18.91,4.11-38.15,2.45-57.25-.95-11.03-2.68-22.02-5.33-32.78-.99-3.99-5.7-6.76-9.65-5.48s-6.54,5.38-5.48,9.65h0Z"/><path class="cls-2" d="M166.74,300.02c-1.95-6.16-3.32-12.47-4.18-18.87l.28,2.09c-1.57-11.99-1.33-24.13,.25-36.1l-.28,2.09c2.15-15.97,6.65-31.57,12.9-46.41l-.79,1.87c6.16-14.54,14-28.41,23.62-40.93l-1.23,1.59c6.22-8.05,13.26-15.49,21.32-21.73l-1.59,1.23c5.58-4.29,11.61-7.97,18.1-10.71l-1.87,.79c5.12-2.13,10.46-3.64,15.95-4.41l-2.09,.28c5.27-.7,10.59-.71,15.86-.02l-2.09-.28c1.79,.24,3.57,.56,5.34,.95,4,.88,8.68-1.2,9.65-5.48,.9-3.97-1.19-8.71-5.48-9.65-8.81-1.93-17.56-2.15-26.45-.77-7.93,1.23-15.6,4.11-22.67,7.86-15.02,7.96-27.19,20.34-37.33,33.79s-17.45,27.25-23.69,42.19c-6.6,15.81-10.98,32.35-13.07,49.35s-1.38,33.56,2.77,49.73c.5,1.93,1.05,3.85,1.65,5.76,1.24,3.91,5.51,6.82,9.65,5.48,3.92-1.27,6.81-5.46,5.48-9.65h0Z"/><path class="cls-1" d="M369.42,210.25c-15.92-16.47-35.58-29.07-56.01-39.21-5.79-2.87-11.66-5.55-17.6-8.09-2.02-.87-3.83-1.4-6.05-.79-1.82,.5-3.79,1.91-4.69,3.61-.96,1.82-1.44,4.03-.79,6.05,.58,1.8,1.78,3.91,3.61,4.69,15.26,6.54,30.18,14.01,44.04,23.17,3.9,2.58,7.71,5.29,11.42,8.15l-1.59-1.23c5.85,4.53,11.41,9.43,16.55,14.76,2.86,2.96,8.27,3.09,11.1,0s3.05-7.94,0-11.1h0Z"/></g></svg>
